<svg xmlns="http://www.w3.org/2000/svg" viewBox="0 0 36 36"><rect width="36" height="36" style="fill:#3b73b9"/><path d="M12.25,8l-2.38,4.7v2.6H8.23V12.74L5.91,8H7.79L9,10.73s.07.25.16.59h0a3.15,3.15,0,0,1,.16-.57L10.51,8Z" transform="translate(-2 -2)" style="fill:#fff"/><path d="M18.71,15.31H16.92l-.52-1.63H13.8l-.51,1.63H11.51L14.16,8h1.95ZM16,12.42,15.24,10a3.67,3.67,0,0,1-.13-.66h0A2.88,2.88,0,0,1,15,10l-.8,2.47Z" transform="translate(-2 -2)" style="fill:#fff"/><path d="M27.94,15.31H26.31V10.94q0-.7.06-1.56h0a6.47,6.47,0,0,1-.23,1l-1.71,5H23.05l-1.74-4.92a10,10,0,0,1-.23-1h0c0,.71.07,1.35.07,1.89v4H19.62V8H22l1.49,4.32a6.71,6.71,0,0,1,.26,1.05h0a10.36,10.36,0,0,1,.29-1.06L25.59,8h2.35Z" transform="translate(-2 -2)" style="fill:#fff"/><path d="M33.94,15.31H29.6V8h1.64v6h2.7Z" transform="translate(-2 -2)" style="fill:#fff"/><path d="M15.85,26.31H11.51V19h1.64v6h2.7Z" transform="translate(-2 -2)" style="fill:#fff"/><path d="M17.49,20.27a.92.92,0,0,1-.66-.24.76.76,0,0,1-.26-.6.74.74,0,0,1,.26-.59,1.08,1.08,0,0,1,1.33,0,.77.77,0,0,1,.26.59.76.76,0,0,1-.26.6A.93.93,0,0,1,17.49,20.27Zm.8,6H16.68V21.09h1.61Z" transform="translate(-2 -2)" style="fill:#fff"/><path d="M24.68,26.31H23.07v-2.9c0-.81-.29-1.21-.86-1.21a.84.84,0,0,0-.69.32,1.2,1.2,0,0,0-.27.81v3H19.64V21.09h1.61v.83h0A1.83,1.83,0,0,1,23,21c1.15,0,1.73.71,1.73,2.14Z" transform="translate(-2 -2)" style="fill:#fff"/><path d="M29.1,26.24a2.35,2.35,0,0,1-1.08.19,1.53,1.53,0,0,1-1.7-1.76V22.28h-.84V21.09h.84V20l1.61-.46v1.58H29.1v1.19H27.93v2.11c0,.54.21.81.64.81a1.1,1.1,0,0,0,.53-.15Z" transform="translate(-2 -2)" style="fill:#fff"/><path d="M33,32.23c-1.08,0-1.08-2-2.16-2s-1.09,2-2.17,2-1.08-2-2.16-2-1.09,2-2.17,2-1.08-2-2.17-2-1.08,2-2.16,2-1.08-2-2.16-2-1.09,2-2.17,2-1.08-2-2.17-2-1.08,2-2.17,2-1.08-2-2.17-2-1.08,2-2.17,2" transform="translate(-2 -2)" style="fill:none;stroke:#ffd203;stroke-linecap:round;stroke-miterlimit:10;stroke-width:1.5px"/></svg>
